<mxfile host="65bd71144e">
    <diagram id="R3N_D--5qBi451Lv7yX1" name="Page-1">
        <mxGraphModel dx="881" dy="662" grid="1" gridSize="10" guides="1" tooltips="1" connect="1" arrows="1" fold="1" page="1" pageScale="1" pageWidth="850" pageHeight="1100" math="0" shadow="0">
            <root>
                <mxCell id="0"/>
                <mxCell id="1" parent="0"/>
                <mxCell id="129" value="Entity relationship diagram" style="swimlane;whiteSpace=wrap;html=1;startSize=20;" vertex="1" parent="1">
                    <mxGeometry x="10" y="70" width="330" height="340" as="geometry"/>
                </mxCell>
                <mxCell id="130" style="edgeStyle=none;html=1;entryX=0.5;entryY=1;entryDx=0;entryDy=0;endArrow=none;endFill=0;" edge="1" parent="129" source="133" target="134">
                    <mxGeometry relative="1" as="geometry"/>
                </mxCell>
                <mxCell id="131" style="edgeStyle=none;html=1;entryX=0.5;entryY=1;entryDx=0;entryDy=0;endArrow=none;endFill=0;" edge="1" parent="129" source="133" target="135">
                    <mxGeometry relative="1" as="geometry"/>
                </mxCell>
                <mxCell id="132" style="edgeStyle=none;html=1;entryX=0.5;entryY=0;entryDx=0;entryDy=0;endArrow=none;endFill=0;shape=link;" edge="1" parent="129" source="133">
                    <mxGeometry relative="1" as="geometry">
                        <mxPoint x="210" y="160" as="targetPoint"/>
                    </mxGeometry>
                </mxCell>
                <mxCell id="133" value="employee" style="html=1;dashed=0;whiteSpace=wrap;" vertex="1" parent="129">
                    <mxGeometry x="160" y="90" width="100" height="50" as="geometry"/>
                </mxCell>
                <mxCell id="134" value="&lt;u&gt;SSN&lt;/u&gt;" style="ellipse;whiteSpace=wrap;html=1;align=center;" vertex="1" parent="129">
                    <mxGeometry x="90" y="30" width="100" height="40" as="geometry"/>
                </mxCell>
                <mxCell id="135" value="name" style="ellipse;whiteSpace=wrap;html=1;align=center;" vertex="1" parent="129">
                    <mxGeometry x="210" y="30" width="100" height="40" as="geometry"/>
                </mxCell>
                <mxCell id="136" style="edgeStyle=none;html=1;entryX=0.5;entryY=0;entryDx=0;entryDy=0;" edge="1" parent="129">
                    <mxGeometry relative="1" as="geometry">
                        <mxPoint x="81.43046618229482" y="268.5695338177052" as="sourcePoint"/>
                    </mxGeometry>
                </mxCell>
                <mxCell id="137" style="edgeStyle=none;html=1;entryX=0.5;entryY=0;entryDx=0;entryDy=0;" edge="1" parent="129">
                    <mxGeometry relative="1" as="geometry">
                        <mxPoint x="128.67311721816714" y="266.38463841038117" as="sourcePoint"/>
                    </mxGeometry>
                </mxCell>
                <mxCell id="138" style="edgeStyle=none;html=1;entryX=0.5;entryY=0;entryDx=0;entryDy=0;endArrow=none;endFill=0;shape=link;exitX=0.5;exitY=1;exitDx=0;exitDy=0;" edge="1" parent="129" source="146">
                    <mxGeometry relative="1" as="geometry">
                        <mxPoint x="210" y="240" as="targetPoint"/>
                        <mxPoint x="210" y="220" as="sourcePoint"/>
                    </mxGeometry>
                </mxCell>
                <mxCell id="139" style="edgeStyle=none;html=1;entryX=1;entryY=0.5;entryDx=0;entryDy=0;endArrow=none;endFill=0;" edge="1" parent="129" target="141">
                    <mxGeometry relative="1" as="geometry">
                        <mxPoint x="160" y="260" as="sourcePoint"/>
                    </mxGeometry>
                </mxCell>
                <mxCell id="140" style="edgeStyle=none;html=1;entryX=0.5;entryY=0;entryDx=0;entryDy=0;endArrow=none;endFill=0;" edge="1" parent="129" target="142">
                    <mxGeometry relative="1" as="geometry">
                        <mxPoint x="160" y="278.75" as="sourcePoint"/>
                    </mxGeometry>
                </mxCell>
                <mxCell id="141" value="&lt;u&gt;number&lt;/u&gt;" style="ellipse;whiteSpace=wrap;html=1;align=center;" vertex="1" parent="129">
                    <mxGeometry x="20" y="240" width="100" height="40" as="geometry"/>
                </mxCell>
                <mxCell id="142" value="color" style="ellipse;whiteSpace=wrap;html=1;align=center;" vertex="1" parent="129">
                    <mxGeometry x="80" y="290" width="100" height="40" as="geometry"/>
                </mxCell>
                <mxCell id="143" value="1" style="text;html=1;align=center;verticalAlign=middle;resizable=0;points=[];autosize=1;strokeColor=none;fillColor=none;" vertex="1" parent="129">
                    <mxGeometry x="209" y="210" width="30" height="30" as="geometry"/>
                </mxCell>
                <mxCell id="144" value="car" style="html=1;dashed=0;whiteSpace=wrap;" vertex="1" parent="129">
                    <mxGeometry x="160" y="240" width="100" height="50" as="geometry"/>
                </mxCell>
                <mxCell id="145" value="1" style="text;html=1;align=center;verticalAlign=middle;resizable=0;points=[];autosize=1;strokeColor=none;fillColor=none;" vertex="1" parent="129">
                    <mxGeometry x="215" y="135" width="30" height="30" as="geometry"/>
                </mxCell>
                <mxCell id="146" value="has" style="shape=rhombus;perimeter=rhombusPerimeter;whiteSpace=wrap;html=1;align=center;" vertex="1" parent="129">
                    <mxGeometry x="150" y="157" width="120" height="60" as="geometry"/>
                </mxCell>
                <mxCell id="147" value="DB Mapping" style="swimlane;whiteSpace=wrap;html=1;startSize=20;" vertex="1" parent="1">
                    <mxGeometry x="370" y="70" width="460" height="220" as="geometry"/>
                </mxCell>
                <mxCell id="148" style="edgeStyle=none;html=1;entryX=1;entryY=0.5;entryDx=0;entryDy=0;" edge="1" parent="147">
                    <mxGeometry relative="1" as="geometry">
                        <mxPoint x="100" y="200" as="targetPoint"/>
                    </mxGeometry>
                </mxCell>
                <mxCell id="149" style="edgeStyle=none;html=1;entryX=0.5;entryY=0;entryDx=0;entryDy=0;" edge="1" parent="147">
                    <mxGeometry relative="1" as="geometry">
                        <mxPoint x="60" y="290" as="targetPoint"/>
                    </mxGeometry>
                </mxCell>
                <mxCell id="150" style="edgeStyle=none;html=1;entryX=0.5;entryY=0;entryDx=0;entryDy=0;" edge="1" parent="147">
                    <mxGeometry relative="1" as="geometry">
                        <mxPoint x="170" y="290" as="targetPoint"/>
                    </mxGeometry>
                </mxCell>
                <mxCell id="151" style="edgeStyle=none;html=1;entryX=0.764;entryY=0.12;entryDx=0;entryDy=0;entryPerimeter=0;" edge="1" parent="147">
                    <mxGeometry relative="1" as="geometry">
                        <mxPoint x="126.40000000000009" y="234.79999999999995" as="targetPoint"/>
                    </mxGeometry>
                </mxCell>
                <mxCell id="152" value="Mapping" style="swimlane;whiteSpace=wrap;html=1;" vertex="1" parent="147">
                    <mxGeometry x="10" y="30" width="440" height="110" as="geometry"/>
                </mxCell>
                <mxCell id="153" value="employee table" style="swimlane;whiteSpace=wrap;html=1;" vertex="1" parent="152">
                    <mxGeometry x="20" y="40" width="400" height="60" as="geometry"/>
                </mxCell>
                <mxCell id="154" value="car-number" style="rounded=0;whiteSpace=wrap;html=1;fillColor=#6a00ff;fontColor=#ffffff;strokeColor=#3700CC;fontStyle=0" vertex="1" parent="153">
                    <mxGeometry x="100" y="25" width="100" height="30" as="geometry"/>
                </mxCell>
                <mxCell id="155" value="SSN" style="rounded=0;whiteSpace=wrap;html=1;fillColor=#6a00ff;fontColor=#ffffff;strokeColor=#3700CC;fontStyle=4" vertex="1" parent="153">
                    <mxGeometry y="25" width="100" height="30" as="geometry"/>
                </mxCell>
                <mxCell id="156" value="name" style="rounded=0;whiteSpace=wrap;html=1;fillColor=#6a00ff;fontColor=#ffffff;strokeColor=#3700CC;" vertex="1" parent="153">
                    <mxGeometry x="200" y="25" width="100" height="30" as="geometry"/>
                </mxCell>
                <mxCell id="157" value="color" style="rounded=0;whiteSpace=wrap;html=1;fillColor=#6a00ff;fontColor=#ffffff;strokeColor=#3700CC;" vertex="1" parent="153">
                    <mxGeometry x="300" y="25" width="100" height="30" as="geometry"/>
                </mxCell>
                <mxCell id="158" value="constraints file" style="swimlane;fontStyle=0;childLayout=stackLayout;horizontal=1;startSize=30;horizontalStack=0;resizeParent=1;resizeParentMax=0;resizeLast=0;collapsible=1;marginBottom=0;whiteSpace=wrap;html=1;" vertex="1" parent="147">
                    <mxGeometry x="10" y="150" width="440" height="60" as="geometry"/>
                </mxCell>
            </root>
        </mxGraphModel>
    </diagram>
</mxfile>